<svg width="32" height="32" viewBox="0 0 32 32" fill="none" xmlns="http://www.w3.org/2000/svg">
<path fill-rule="evenodd" clip-rule="evenodd" d="M14.7901 6.68372C15.1612 7.09567 15.6897 7.33086 16.2441 7.33086C16.7986 7.33086 17.327 7.09567 17.6981 6.68372L18.6441 5.64572C19.1997 5.03086 20.082 4.83208 20.8476 5.1493C21.6131 5.46652 22.0963 6.23112 22.0541 7.05872L21.9831 8.45872C21.9554 9.01099 22.1624 9.54926 22.5531 9.94055C22.9439 10.3318 23.4818 10.5397 24.0341 10.5127L25.4341 10.4417C26.2612 10.4009 27.0245 10.8846 27.3409 11.6498C27.6574 12.415 27.4585 13.2965 26.8441 13.8517L25.8021 14.7917C25.3907 15.1633 25.1559 15.6918 25.1559 16.2462C25.1559 16.8006 25.3907 17.3291 25.8021 17.7007L26.8441 18.6407C27.459 19.1963 27.6578 20.0786 27.3406 20.8442C27.0233 21.6097 26.2587 22.0929 25.4311 22.0507L24.0311 21.9797C23.4776 21.9512 22.938 22.1587 22.546 22.5506C22.1541 22.9425 21.9467 23.4822 21.9751 24.0357L22.0461 25.4357C22.0828 26.259 21.6004 27.0171 20.8391 27.3326C20.0779 27.6481 19.2006 27.4535 18.6441 26.8457L17.7031 25.8047C17.3317 25.3933 16.8034 25.1586 16.2491 25.1586C15.6949 25.1586 15.1666 25.3933 14.7951 25.8047L13.8501 26.8457C13.2945 27.4564 12.4157 27.6532 11.6527 27.3378C10.8897 27.0224 10.4063 26.2625 10.4441 25.4377L10.5161 24.0377C10.5446 23.4842 10.3372 22.9445 9.94524 22.5526C9.55332 22.1607 9.01366 21.9532 8.46014 21.9817L7.06014 22.0527C6.23287 22.0959 5.46795 21.6138 5.15002 20.8488C4.8321 20.0839 5.02997 19.2016 5.64414 18.6457L6.68514 17.7057C7.09656 17.3341 7.33136 16.8056 7.33136 16.2512C7.33136 15.6968 7.09656 15.1683 6.68514 14.7967L5.64414 13.8517C5.03203 13.2965 4.83445 12.4167 5.15036 11.653C5.46628 10.8894 6.22765 10.4063 7.05314 10.4457L8.45314 10.5167C9.00773 10.5459 9.54862 10.3382 9.94113 9.94527C10.3336 9.55238 10.5408 9.01129 10.5111 8.45672L10.4441 7.05572C10.4054 6.23059 10.8885 5.46984 11.6517 5.15389C12.4149 4.83793 13.2943 5.03467 13.8501 5.64572L14.7901 6.68372Z" stroke="white" stroke-width="2" stroke-linecap="round" stroke-linejoin="round"/>
<path d="M16.2441 20.7466C18.7294 20.7466 20.7441 18.7319 20.7441 16.2466C20.7441 13.7613 18.7294 11.7466 16.2441 11.7466C13.7589 11.7466 11.7441 13.7613 11.7441 16.2466C11.7441 18.7319 13.7589 20.7466 16.2441 20.7466Z" stroke="white" stroke-width="2" stroke-linecap="round" stroke-linejoin="round"/>
</svg>
