<svg width="37" height="38" viewBox="0 0 37 38" fill="none" xmlns="http://www.w3.org/2000/svg">
<path d="M31.2187 28.9126V31.2251C31.2187 32.5023 30.1834 33.5376 28.9062 33.5376H21.9688" stroke="#D7FDFF" stroke-width="2.3125" stroke-linecap="round" stroke-linejoin="round"/>
<path d="M21.9688 5.7876H28.9062C30.1834 5.7876 31.2187 6.82294 31.2187 8.1001V10.4126" stroke="#D7FDFF" stroke-width="2.3125" stroke-linecap="round" stroke-linejoin="round"/>
<path fill-rule="evenodd" clip-rule="evenodd" d="M16.0241 35.8377L2.14908 33.8552C1.57935 33.7745 1.15595 33.2867 1.15625 32.7112V5.74287C1.1558 5.19721 1.53689 4.72551 2.07046 4.61129L15.9455 1.18725C16.287 1.11413 16.6433 1.19934 16.9149 1.41908C17.1864 1.63882 17.344 1.96953 17.3438 2.31883V34.6938C17.3435 35.0289 17.198 35.3474 16.9448 35.5668C16.6917 35.7863 16.3558 35.8851 16.0241 35.8377Z" stroke="#D7FDFF" stroke-width="2.3125" stroke-linecap="round" stroke-linejoin="round"/>
<path d="M27.75 15.0356L23.125 19.6606H35.8437" stroke="#D7FDFF" stroke-width="2.3125" stroke-linecap="round" stroke-linejoin="round"/>
<path d="M27.75 24.2856L23.125 19.6606" stroke="#D7FDFF" stroke-width="2.3125" stroke-linecap="round" stroke-linejoin="round"/>
<path d="M12.1406 17.928C11.9062 17.9281 11.695 18.0696 11.6059 18.2864C11.5168 18.5032 11.5674 18.7523 11.734 18.9172C11.9007 19.082 12.1503 19.1299 12.3662 19.0385C12.582 18.9471 12.7212 18.7344 12.7187 18.5C12.7191 18.3465 12.6584 18.1993 12.5499 18.0908C12.4414 17.9822 12.2941 17.9215 12.1406 17.9219" stroke="#D7FDFF" stroke-width="2.3125" stroke-linecap="round" stroke-linejoin="round"/>
</svg>
